<?xml version="1.0" encoding="utf-8"?>
<!-- Generator: Adobe Illustrator 24.0.3, SVG Export Plug-In . SVG Version: 6.00 Build 0)  -->
<svg version="1.1" id="Layer_1" xmlns="http://www.w3.org/2000/svg" xmlns:xlink="http://www.w3.org/1999/xlink" x="0px" y="0px"
	 viewBox="0 0 566.9 566.9" style="enable-background:new 0 0 566.9 566.9;" xml:space="preserve">
<style type="text/css">
	.st0{fill:#6DA542;}
	.st1{fill:#FEDA46;}
	.st2{fill:#F1F0F0;}
	.st3{fill:#2057A7;}
</style>
<g>
	<path class="st0" d="M294.9,538.3c0.1,0,0.2,0,0.2,0c135.6-5.9,243.8-117.8,243.8-254.9S430.7,34.5,295.1,28.5c-0.1,0-0.2,0-0.2,0
		c-1.8-0.1-3.6-0.1-5.4-0.2c-0.9,0-1.9,0-2.8,0c-0.9,0-1.9,0-2.8,0h-0.1h-0.1h-0.1h-0.1c-2.1,0-4.2,0-6.3,0.1c-0.1,0-0.2,0-0.4,0
		c-2,0.1-4.1,0.1-6.1,0.2c-0.1,0-0.3,0-0.4,0c-2,0.1-4.1,0.2-6.1,0.4c-0.1,0-0.1,0-0.2,0C147.8,37.8,53.4,124.4,32.7,236.9L283.6,52
		l250.9,184.9c2.8,15.1,4.2,30.6,4.2,46.5s-1.5,31.4-4.2,46.5L283.6,514.8L32.7,329.9C53.4,442.4,147.8,529,264,537.8
		c0.1,0,0.1,0,0.2,0c2,0.2,4.1,0.3,6.1,0.4c0.1,0,0.3,0,0.4,0c2,0.1,4.1,0.2,6.1,0.2c0.1,0,0.2,0,0.4,0c2.1,0.1,4.2,0.1,6.3,0.1h0.1
		h0.1h0.1h0.1c0.9,0,1.9,0,2.8,0c0.9,0,1.9,0,2.8,0C291.2,538.4,293,538.3,294.9,538.3z"/>
	<path class="st1" d="M283.4,514.7l250.9-184.9c2.8-15.1,4.2-30.6,4.2-46.5s-1.5-31.4-4.2-46.5L283.4,52.1L32.5,237
		c-2.8,15.1-4.2,30.6-4.2,46.5s1.5,31.4,4.2,46.5L283.4,514.7z M213.7,171.1c0.1,0,0.1-0.1,0.2-0.1c2.6-1.6,5.3-3.1,8-4.6
		c0.1-0.1,0.2-0.1,0.3-0.2c2.7-1.4,5.4-2.7,8.2-3.9c0.2-0.1,0.4-0.2,0.5-0.2c2.7-1.2,5.5-2.3,8.3-3.3c0.2-0.1,0.5-0.2,0.7-0.3
		c1.4-0.5,2.8-1,4.3-1.4l0,0c1.4-0.4,2.8-0.8,4.2-1.2c0.3-0.1,0.6-0.2,0.9-0.2c1.4-0.4,2.9-0.7,4.3-1.1c0,0,0,0,0.1,0
		c1.4-0.3,2.8-0.6,4.2-0.9c0.3-0.1,0.7-0.1,1-0.2c1.5-0.3,2.9-0.5,4.4-0.8h0.1c1.4-0.2,2.9-0.4,4.3-0.6c0.4,0,0.7-0.1,1.1-0.1
		c1.5-0.2,3-0.3,4.4-0.4h0.1c1.5-0.1,2.9-0.2,4.4-0.2c0.4,0,0.7,0,1.1,0c1.5-0.1,3-0.1,4.5-0.1l0,0l0,0c73,0,132.2,59.2,132.2,132.2
		c0,1.1,0,2.2,0,3.3c0,0.6,0,1.2-0.1,1.8c0,0.5,0,0.9-0.1,1.4c-2.7,54.7-38.6,100.6-87.9,118.1c-0.1,0-0.3,0.1-0.4,0.1
		c-1.1,0.4-2.2,0.8-3.3,1.1c-0.1,0-0.2,0.1-0.4,0.1c-2.4,0.8-4.9,1.5-7.4,2.1c-0.2,0-0.4,0.1-0.6,0.1c-1,0.2-2,0.5-3,0.7
		c-0.4,0.1-0.7,0.2-1.1,0.2c-0.9,0.2-1.8,0.4-2.7,0.5c-0.4,0.1-0.8,0.1-1.1,0.2c-0.9,0.2-1.9,0.3-2.8,0.5c-0.3,0-0.6,0.1-0.9,0.1
		c-1.2,0.2-2.5,0.4-3.7,0.5c-0.3,0-0.6,0.1-0.9,0.1c-0.9,0.1-1.9,0.2-2.8,0.3c-0.5,0-0.9,0.1-1.4,0.1c-0.8,0.1-1.6,0.1-2.4,0.2
		c-0.5,0-1,0.1-1.5,0.1c-0.8,0-1.6,0.1-2.4,0.1c-0.5,0-1,0-1.4,0.1c-1.1,0-2.2,0-3.3,0.1c-0.2,0-0.3,0-0.5,0
		c-5.7,0-11.3-0.4-16.8-1.1c-0.1,0-0.2,0-0.4,0c-1-0.1-2-0.3-2.9-0.4c-0.2,0-0.4-0.1-0.7-0.1c-0.9-0.1-1.7-0.3-2.6-0.4
		c-0.3-0.1-0.6-0.1-0.8-0.2c-0.8-0.1-1.6-0.3-2.4-0.5c-0.4-0.1-0.7-0.2-1.1-0.2c-0.7-0.2-1.4-0.3-2.1-0.5c-0.4-0.1-0.8-0.2-1.2-0.3
		c-0.6-0.2-1.3-0.3-1.9-0.5c-0.5-0.1-0.9-0.2-1.4-0.4c-0.6-0.2-1.2-0.3-1.7-0.5c-0.5-0.1-1-0.3-1.5-0.5s-1-0.3-1.6-0.5
		s-1.1-0.4-1.7-0.5c-0.5-0.2-0.9-0.3-1.4-0.5c-0.6-0.2-1.2-0.4-1.8-0.6c-0.4-0.1-0.8-0.3-1.3-0.4c-0.6-0.2-1.3-0.5-1.9-0.7
		c-0.4-0.1-0.7-0.3-1.1-0.4c-0.7-0.3-1.3-0.5-2-0.8c-0.3-0.1-0.6-0.3-1-0.4c-0.7-0.3-1.4-0.6-2.1-0.9c-0.3-0.1-0.5-0.2-0.8-0.4
		c-0.7-0.3-1.5-0.7-2.2-1c-0.2-0.1-0.4-0.2-0.7-0.3c-0.8-0.4-1.5-0.8-2.3-1.1c-0.2-0.1-0.4-0.2-0.5-0.3c-0.8-0.4-1.6-0.8-2.4-1.3
		c-0.1-0.1-0.3-0.1-0.4-0.2c-0.8-0.5-1.7-0.9-2.5-1.4c-0.1,0-0.2-0.1-0.3-0.1c-0.9-0.5-1.7-1-2.6-1.5c0,0-0.1,0-0.1-0.1
		c-38.4-23.1-64.1-65.2-64.1-113.3C151.2,236,176.2,194.4,213.7,171.1z"/>
	<path class="st2" d="M287.2,415.5c-1.1,0-2.2,0-3.3,0.1C285,415.6,286.1,415.6,287.2,415.5z"/>
	<path class="st2" d="M283.4,151.2c-1.5,0-3,0-4.5,0.1C280.4,151.3,281.9,151.2,283.4,151.2L283.4,151.2z"/>
	<path class="st2" d="M268.8,152c1.5-0.2,3-0.3,4.4-0.4C271.8,151.7,270.3,151.9,268.8,152z"/>
	<path class="st2" d="M303.8,414c-1.2,0.2-2.5,0.4-3.7,0.5C301.3,414.4,302.5,414.2,303.8,414z"/>
	<path class="st2" d="M273.3,151.6c1.5-0.1,2.9-0.2,4.4-0.2C276.3,151.4,274.8,151.5,273.3,151.6z"/>
	<path class="st2" d="M263.4,152.7c1.4-0.2,2.9-0.4,4.3-0.6C266.3,152.3,264.9,152.5,263.4,152.7z"/>
	<path class="st2" d="M253.7,154.6c1.4-0.3,2.8-0.6,4.2-0.9C256.6,153.9,255.2,154.2,253.7,154.6z"/>
	<path class="st2" d="M266.6,414.5c-0.1,0-0.2,0-0.4,0C266.3,414.5,266.5,414.5,266.6,414.5z"/>
	<path class="st2" d="M253.6,412.2c-0.4-0.1-0.8-0.2-1.2-0.3C252.8,412,253.2,412.1,253.6,412.2z"/>
	<path class="st2" d="M259,153.5c1.5-0.3,2.9-0.5,4.4-0.8C261.9,153,260.4,153.2,259,153.5z"/>
	<path class="st2" d="M294.9,415.1c-0.8,0.1-1.6,0.1-2.4,0.2C293.3,415.2,294.1,415.1,294.9,415.1z"/>
	<path class="st2" d="M256.8,412.9c-0.4-0.1-0.7-0.2-1.1-0.2C256.1,412.8,256.5,412.8,256.8,412.9z"/>
	<path class="st2" d="M311.3,412.6c-0.9,0.2-1.8,0.4-2.7,0.5C309.5,413,310.4,412.8,311.3,412.6z"/>
	<path class="st2" d="M307.5,413.4c-0.9,0.2-1.9,0.3-2.8,0.5C305.6,413.7,306.6,413.6,307.5,413.4z"/>
	<path class="st2" d="M299.1,414.6c-0.9,0.1-1.9,0.2-2.8,0.3C297.3,414.9,298.2,414.8,299.1,414.6z"/>
	<path class="st2" d="M315.4,411.7c-1,0.3-2,0.5-3,0.7C313.4,412.2,314.4,411.9,315.4,411.7z"/>
	<path class="st2" d="M291,415.4c-0.8,0-1.6,0.1-2.4,0.1C289.4,415.4,290.2,415.4,291,415.4z"/>
	<path class="st2" d="M323.4,409.4c-2.4,0.8-4.9,1.5-7.4,2.1C318.5,410.9,321,410.2,323.4,409.4z"/>
	<path class="st2" d="M327.1,408.2c-1.1,0.4-2.2,0.8-3.3,1.1C324.9,408.9,326,408.6,327.1,408.2z"/>
	<path class="st2" d="M415.5,286.7c0,0.6,0,1.2-0.1,1.8C415.5,287.9,415.5,287.3,415.5,286.7z"/>
	<path class="st2" d="M263.3,414.1c-0.2,0-0.4-0.1-0.7-0.1C262.9,414,263.1,414,263.3,414.1z"/>
	<path class="st2" d="M250.5,411.4c-0.5-0.1-0.9-0.2-1.4-0.4C249.5,411.2,250,411.3,250.5,411.4z"/>
	<path class="st2" d="M226.4,402.7c-0.8-0.4-1.5-0.8-2.3-1.1C224.9,401.9,225.6,402.3,226.4,402.7z"/>
	<path class="st2" d="M223.6,401.3c-0.8-0.4-1.6-0.8-2.4-1.3C222,400.5,222.8,400.9,223.6,401.3z"/>
	<path class="st2" d="M229.3,404c-0.7-0.3-1.5-0.7-2.2-1C227.8,403.4,228.5,403.7,229.3,404z"/>
	<path class="st2" d="M232.2,405.3c-0.7-0.3-1.4-0.6-2.1-0.9C230.8,404.7,231.5,405,232.2,405.3z"/>
	<path class="st2" d="M213.9,171c2.6-1.6,5.3-3.1,8-4.6C219.2,167.8,216.5,169.3,213.9,171z"/>
	<path class="st2" d="M249.4,155.7c1.4-0.4,2.9-0.7,4.3-1.1C252.2,154.9,250.8,155.3,249.4,155.7z"/>
	<path class="st2" d="M220.8,399.8c-0.8-0.5-1.7-0.9-2.5-1.4C219.1,398.9,219.9,399.4,220.8,399.8z"/>
	<path class="st2" d="M222.2,166.2c2.7-1.4,5.4-2.7,8.2-3.9C227.6,163.5,224.9,164.8,222.2,166.2z"/>
	<path class="st2" d="M215.3,396.7c-37.9-22.9-63.5-64.2-64.1-111.6c20.9-6.5,43.1-10,66-10c70.5,0,133.4,32.9,174.3,84.1
		c-15.7,22.3-38,39.6-64.1,48.8c49.4-17.5,85.3-63.4,87.9-118.1c-0.3,6.4-1.1,12.7-2.3,18.8c-49.6-51.2-119-83.2-195.8-83.2
		c-19,0-37.5,2-55.4,5.7c10.7-25,28.9-46,51.8-60.2c-37.5,23.3-62.5,64.9-62.5,112.3C151.2,331.5,176.9,373.6,215.3,396.7z"/>
	<path class="st2" d="M218,398.3c-0.9-0.5-1.7-1-2.6-1.5C216.3,397.3,217.2,397.8,218,398.3z"/>
	<path class="st2" d="M235.2,406.5c-0.7-0.3-1.3-0.5-2-0.8C233.8,406,234.5,406.2,235.2,406.5z"/>
	<path class="st2" d="M247.3,410.6c-0.5-0.1-1-0.3-1.5-0.5C246.3,410.3,246.8,410.5,247.3,410.6z"/>
	<path class="st2" d="M260,413.5c-0.3-0.1-0.6-0.1-0.8-0.2C259.5,413.4,259.8,413.5,260,413.5z"/>
	<path class="st2" d="M240,158.5c1.4-0.5,2.8-1,4.3-1.4C242.8,157.5,241.4,158,240,158.5z"/>
	<path class="st2" d="M244.3,157.1c1.4-0.4,2.8-0.8,4.2-1.2C247.1,156.3,245.7,156.7,244.3,157.1z"/>
	<path class="st2" d="M241.2,408.7c-0.6-0.2-1.2-0.4-1.8-0.6C240,408.3,240.6,408.5,241.2,408.7z"/>
	<path class="st2" d="M231,162c2.7-1.2,5.5-2.3,8.3-3.3C236.5,159.8,233.7,160.9,231,162z"/>
	<path class="st2" d="M238.2,407.6c-0.6-0.2-1.3-0.5-1.9-0.7C236.9,407.2,237.5,407.4,238.2,407.6z"/>
	<path class="st2" d="M244.2,409.7c-0.6-0.2-1.1-0.4-1.7-0.5C243.1,409.3,243.7,409.5,244.2,409.7z"/>
	<path class="st3" d="M391.6,359.2c-40.9-51.2-103.9-84.1-174.3-84.1c-23,0-45.2,3.5-66,10c0.6,47.4,26.1,88.7,64.1,111.6
		c0,0,0.1,0,0.1,0.1c0.9,0.5,1.7,1,2.6,1.5c0.1,0,0.2,0.1,0.3,0.1c0.8,0.5,1.7,0.9,2.5,1.4c0.1,0.1,0.3,0.1,0.4,0.2
		c0.8,0.4,1.6,0.8,2.4,1.3c0.2,0.1,0.4,0.2,0.5,0.3c0.8,0.4,1.5,0.8,2.3,1.1c0.2,0.1,0.4,0.2,0.7,0.3c0.7,0.3,1.5,0.7,2.2,1
		c0.3,0.1,0.5,0.2,0.8,0.4c0.7,0.3,1.4,0.6,2.1,0.9c0.3,0.1,0.6,0.3,1,0.4c0.7,0.3,1.3,0.5,2,0.8c0.4,0.1,0.7,0.3,1.1,0.4
		c0.6,0.2,1.3,0.5,1.9,0.7c0.4,0.2,0.8,0.3,1.3,0.4c0.6,0.2,1.2,0.4,1.8,0.6c0.5,0.2,0.9,0.3,1.4,0.5c0.6,0.2,1.1,0.4,1.7,0.5
		c0.5,0.2,1,0.3,1.6,0.5c0.5,0.2,1,0.3,1.5,0.5c0.6,0.2,1.2,0.3,1.7,0.5c0.5,0.1,0.9,0.3,1.4,0.4c0.6,0.2,1.3,0.3,1.9,0.5
		c0.4,0.1,0.8,0.2,1.2,0.3c0.7,0.2,1.4,0.3,2.1,0.5c0.4,0.1,0.7,0.2,1.1,0.2c0.8,0.2,1.6,0.3,2.4,0.5c0.3,0.1,0.6,0.1,0.8,0.2
		c0.9,0.2,1.7,0.3,2.6,0.4c0.2,0,0.4,0.1,0.7,0.1c1,0.1,1.9,0.3,2.9,0.4c0.1,0,0.2,0,0.4,0c5.5,0.7,11.1,1.1,16.8,1.1
		c0.2,0,0.3,0,0.5,0c1.1,0,2.2,0,3.3-0.1c0.5,0,1,0,1.4-0.1c0.8,0,1.6-0.1,2.4-0.1c0.5,0,1-0.1,1.5-0.1c0.8-0.1,1.6-0.1,2.4-0.2
		c0.5,0,1-0.1,1.4-0.1c0.9-0.1,1.9-0.2,2.8-0.3c0.3,0,0.6-0.1,0.9-0.1c1.2-0.2,2.5-0.3,3.7-0.5c0.3,0,0.6-0.1,0.9-0.1
		c1-0.2,1.9-0.3,2.8-0.5c0.4-0.1,0.8-0.1,1.1-0.2c0.9-0.2,1.8-0.4,2.7-0.5c0.4-0.1,0.7-0.2,1.1-0.2c1-0.2,2-0.5,3-0.7
		c0.2,0,0.4-0.1,0.6-0.1c2.5-0.6,5-1.3,7.4-2.1c0.1,0,0.2-0.1,0.4-0.1c1.1-0.4,2.2-0.7,3.3-1.1c0.1,0,0.3-0.1,0.4-0.1
		C353.6,398.8,376,381.5,391.6,359.2z"/>
	<path class="st3" d="M161.9,231.2c17.9-3.7,36.4-5.7,55.4-5.7c76.8,0,146.2,31.9,195.8,83.2c1.2-6.1,2-12.4,2.3-18.8
		c0-0.5,0-0.9,0.1-1.4c0-0.6,0.1-1.2,0.1-1.8c0-1.1,0-2.2,0-3.3c0-73-59.2-132.2-132.2-132.2l0,0c-1.5,0-3,0-4.5,0.1
		c-0.4,0-0.7,0-1.1,0c-1.5,0.1-2.9,0.1-4.4,0.2h-0.1c-1.5,0.1-3,0.3-4.4,0.4c-0.4,0-0.7,0.1-1.1,0.1c-1.4,0.2-2.9,0.4-4.3,0.6h-0.1
		c-1.5,0.2-2.9,0.5-4.4,0.8c-0.3,0.1-0.7,0.1-1,0.2c-1.4,0.3-2.8,0.6-4.2,0.9c0,0,0,0-0.1,0c-1.5,0.3-2.9,0.7-4.3,1.1
		c-0.3,0.1-0.6,0.2-0.9,0.2c-1.4,0.4-2.8,0.8-4.2,1.2l0,0c-1.4,0.4-2.9,0.9-4.3,1.4c-0.2,0.1-0.5,0.2-0.7,0.3
		c-2.8,1-5.6,2.1-8.3,3.3c-0.2,0.1-0.4,0.2-0.5,0.2c-2.8,1.2-5.5,2.5-8.2,3.9c-0.1,0.1-0.2,0.1-0.3,0.2c-2.7,1.4-5.4,3-8,4.6
		c-0.1,0-0.1,0.1-0.2,0.1C190.9,185.3,172.7,206.3,161.9,231.2z"/>
</g>
</svg>
