<?xml version="1.0" encoding="utf-8"?>
<!-- Generator: Adobe Illustrator 24.0.3, SVG Export Plug-In . SVG Version: 6.00 Build 0)  -->
<svg version="1.1" id="Layer_1" xmlns="http://www.w3.org/2000/svg" xmlns:xlink="http://www.w3.org/1999/xlink" x="0px" y="0px"
	 viewBox="0 0 566.9 566.9" style="enable-background:new 0 0 566.9 566.9;" xml:space="preserve">
<style type="text/css">
	.st0{fill:none;}
	.st1{fill:#6DA542;}
	.st2{fill:#FFF7EE;}
	.st3{fill:#E02926;}
	.st4{fill:#1055A3;}
	.st5{fill:#FFFFFF;}
</style>
<g>
	<path class="st0" d="M211.5,47.9c-0.4,0.2-0.9,0.4-1.3,0.4C210.6,48.3,211,48.1,211.5,47.9z"/>
	<polygon class="st0" points="128.7,115.2 135.9,111.3 135.9,111.3 	"/>
	<path class="st0" d="M194.3,61c-0.1,0.5-0.2,1-0.5,1.5C194.1,62.1,194.3,61.5,194.3,61z"/>
	<path class="st0" d="M194.3,195.6c-0.1,0.5-0.2,1-0.5,1.5C194.1,196.7,194.3,196.2,194.3,195.6z"/>
	<path class="st0" d="M153.2,91.7c0.2,0.3,0.4,0.6,0.6,0.9C153.7,92.2,153.5,91.9,153.2,91.7z"/>
	<path class="st0" d="M135.9,79.6L135.9,79.6c0.9,0,1.8,0.3,2.4,0.9C137.7,79.9,136.8,79.6,135.9,79.6z"/>
	<polygon class="st0" points="172.6,182.7 169,190.2 165,190.8 169,190.2 	"/>
	<path class="st0" d="M126.9,115.6L126.9,115.6c-0.4,0-0.8-0.1-1.2-0.2C126.1,115.6,126.5,115.6,126.9,115.6z"/>
	<path class="st0" d="M151.5,90.5c0.7,0.2,1.3,0.6,1.7,1.1C152.8,91.1,152.2,90.7,151.5,90.5z"/>
	<path class="st0" d="M157.9,194c-0.2,0.7-0.2,1.4-0.1,2.1C157.7,195.5,157.7,194.7,157.9,194z"/>
	<path class="st0" d="M194.3,128.3c-0.1,0.5-0.2,1-0.5,1.5C194.1,129.4,194.3,128.9,194.3,128.3z"/>
	<path class="st0" d="M157.9,126.7c-0.2,0.7-0.2,1.4-0.1,2.1C157.7,128.2,157.7,127.4,157.9,126.7z"/>
	<polygon class="st0" points="172.6,115.4 169,122.9 165,123.5 169,122.9 	"/>
	<path class="st0" d="M148.7,111.6c0,0.4,0,0.7-0.1,1.1C148.6,112.4,148.7,112,148.7,111.6z"/>
	<path class="st0" d="M176,145l7.2,3.8L176,145z"/>
	<path class="st0" d="M163.5,214.2c0.3,0.7,0.7,1.2,1.3,1.7c0.3,0.2,0.7,0.4,1.1,0.6c-0.4-0.1-0.7-0.3-1.1-0.6
		C164.2,215.4,163.8,214.8,163.5,214.2z"/>
	<path class="st0" d="M176,212.3l7.2,3.8L176,212.3z"/>
	<path class="st0" d="M52.1,214.3c-1,0.3-1.9,1-2.3,2l-3.6,7.5l3.6-7.5C50.2,215.4,51.1,214.6,52.1,214.3z"/>
	<path class="st0" d="M187.2,215.9c0.6-0.4,1-1,1.3-1.7C188.3,214.8,187.8,215.4,187.2,215.9z"/>
	<path class="st0" d="M163.5,146.9c0.3,0.7,0.7,1.2,1.3,1.7c0.3,0.2,0.7,0.4,1.1,0.6c-0.4-0.1-0.7-0.3-1.1-0.6
		C164.2,148.1,163.8,147.5,163.5,146.9z"/>
	<path class="st0" d="M126.9,250.2L126.9,250.2c-0.4,0-0.8-0.1-1.2-0.2C126.1,250.2,126.5,250.2,126.9,250.2z"/>
	<path class="st0" d="M153.2,226.3c0.2,0.3,0.4,0.6,0.6,0.9C153.7,226.8,153.5,226.5,153.2,226.3z"/>
	<path class="st0" d="M206.2,45.9c-0.1-0.3-0.2-0.7-0.3-1C206,45.2,206,45.6,206.2,45.9z"/>
	<path class="st0" d="M148.7,246.3c0,0.4,0,0.7-0.1,1.1C148.6,247,148.7,246.6,148.7,246.3z"/>
	<path class="st0" d="M135.9,214.2L135.9,214.2c0.9,0,1.8,0.3,2.4,0.9C137.7,214.5,136.8,214.2,135.9,214.2z"/>
	<polygon class="st0" points="104.3,190.8 100.3,190.2 96.7,182.7 100.3,190.2 	"/>
	<path class="st0" d="M93.8,180.6c0.9,0.1,1.7,0.6,2.3,1.2C95.5,181.1,94.7,180.7,93.8,180.6z"/>
	<path class="st0" d="M218.7,44l7.2,3.9c0.3,0.2,0.6,0.3,0.9,0.3c-0.3-0.1-0.6-0.2-0.9-0.3L218.7,44z"/>
	<path class="st0" d="M111.1,197.1c0.5-0.9,0.6-2.1,0.3-3.1C111.7,195.1,111.6,196.2,111.1,197.1z"/>
	<path class="st0" d="M151.5,225.1c0.7,0.2,1.3,0.6,1.7,1.1C152.8,225.7,152.2,225.4,151.5,225.1z"/>
	<path class="st0" d="M153.2,159c0.2,0.3,0.4,0.6,0.6,0.9C153.7,159.5,153.5,159.2,153.2,159z"/>
	<path class="st0" d="M151.5,157.8c0.7,0.2,1.3,0.6,1.7,1.1C152.8,158.4,152.2,158.1,151.5,157.8z"/>
	<path class="st0" d="M135.9,146.9L135.9,146.9c0.9,0,1.8,0.3,2.4,0.9C137.7,147.2,136.8,146.9,135.9,146.9z"/>
	<polygon class="st0" points="128.7,182.5 135.9,178.6 135.9,178.6 	"/>
	<polygon class="st0" points="128.7,249.8 135.9,245.9 135.9,245.9 	"/>
	<path class="st0" d="M126.9,182.9L126.9,182.9c-0.4,0-0.8-0.1-1.2-0.2C126.1,182.9,126.5,182.9,126.9,182.9z"/>
	<path class="st0" d="M206.7,46.8c0.2,0.3,0.5,0.5,0.8,0.8c0.3,0.2,0.7,0.4,1.1,0.6c-0.4-0.1-0.7-0.3-1.1-0.6
		C207.2,47.4,206.9,47.1,206.7,46.8z"/>
	<path class="st0" d="M148.7,179c0,0.4,0,0.7-0.1,1.1C148.6,179.7,148.7,179.3,148.7,179z"/>
	<path class="st0" d="M65.9,246.3c0,0.7-0.2,1.4-0.5,2.1C65.8,247.7,65.9,247,65.9,246.3z"/>
	<polygon class="st0" points="215.3,81.7 211.7,89.2 207.6,89.8 211.7,89.2 	"/>
	<path class="st0" d="M215.9,80.8c0.7-0.8,1.7-1.3,2.8-1.3C217.6,79.6,216.6,80,215.9,80.8z"/>
	<path class="st0" d="M200.5,93.1c-0.2,0.5-0.2,1.1-0.2,1.6C200.3,94.1,200.4,93.6,200.5,93.1z"/>
	<path class="st0" d="M206.2,113.2c-0.1-0.3-0.2-0.7-0.3-1C206,112.5,206,112.9,206.2,113.2z"/>
	<path class="st0" d="M187.2,148.5c0.6-0.4,1-1,1.3-1.7C188.3,147.5,187.8,148.1,187.2,148.5z"/>
	<path class="st0" d="M206.7,114.1c0.2,0.3,0.5,0.5,0.8,0.8c0.3,0.2,0.7,0.4,1.1,0.6c-0.4-0.1-0.7-0.3-1.1-0.6
		C207.2,114.7,206.9,114.4,206.7,114.1z"/>
	<path class="st0" d="M211.5,115.2c-0.4,0.2-0.9,0.4-1.3,0.4C210.6,115.6,211,115.4,211.5,115.2z"/>
	<path class="st0" d="M218.7,178.6l7.2,3.9c0.3,0.1,0.6,0.3,0.9,0.3c-0.3-0.1-0.6-0.2-0.9-0.3L218.7,178.6z"/>
	<path class="st0" d="M163.5,79.6c0.3,0.7,0.7,1.2,1.3,1.7c0.3,0.2,0.7,0.4,1.1,0.6c-0.4-0.1-0.7-0.3-1.1-0.6
		C164.2,80.8,163.8,80.2,163.5,79.6z"/>
	<path class="st0" d="M187.2,81.2c0.6-0.4,1-1,1.3-1.7C188.3,80.2,187.8,80.8,187.2,81.2z"/>
	<path class="st0" d="M111.1,129.8c0.5-0.9,0.6-2.1,0.3-3.1C111.7,127.8,111.6,128.9,111.1,129.8z"/>
	<polygon class="st0" points="104.3,123.5 100.3,122.9 96.7,115.4 100.3,122.9 	"/>
	<path class="st0" d="M218.7,111.3l7.2,3.9c0.3,0.2,0.6,0.3,0.9,0.3c-0.3-0.1-0.6-0.2-0.9-0.3L218.7,111.3z"/>
	<path class="st0" d="M206.7,181.4c0.2,0.3,0.5,0.5,0.8,0.8c0.3,0.2,0.7,0.4,1.1,0.6c-0.4-0.1-0.7-0.3-1.1-0.6
		C207.2,182,206.9,181.7,206.7,181.4z"/>
	<path class="st0" d="M229.9,114.9c0.4-0.3,0.8-0.7,1.1-1.2C230.7,114.2,230.3,114.6,229.9,114.9z"/>
	<path class="st0" d="M65.9,179c0,0.7-0.2,1.4-0.5,2C65.8,180.4,65.9,179.7,65.9,179z"/>
	<path class="st0" d="M176,77.7l7.2,3.8L176,77.7z"/>
	<path class="st0" d="M229.9,182.2c0.4-0.3,0.8-0.7,1.1-1.2C230.7,181.5,230.3,181.9,229.9,182.2z"/>
	<path class="st0" d="M211.5,249.8c-0.4,0.2-0.9,0.4-1.3,0.4C210.6,250.2,211,250,211.5,249.8z"/>
	<path class="st0" d="M215.9,215.4c0.7-0.8,1.7-1.3,2.8-1.3C217.6,214.2,216.6,214.7,215.9,215.4z"/>
	<path class="st0" d="M206.2,247.8c-0.1-0.3-0.2-0.7-0.3-1C206,247.2,206,247.5,206.2,247.8z"/>
	<polygon class="st0" points="215.3,216.3 211.7,223.8 207.6,224.4 211.7,223.8 	"/>
	<path class="st0" d="M56.5,216.3l3.6,7.5L56.5,216.3c-0.4-0.8-1.1-1.5-1.9-1.8C55.5,214.9,56.2,215.5,56.5,216.3z"/>
	<path class="st0" d="M200.5,227.7c-0.2,0.5-0.2,1.1-0.2,1.6C200.3,228.7,200.4,228.2,200.5,227.7z"/>
	<path class="st0" d="M44.2,250.2c-0.4,0-0.8-0.1-1.2-0.2C43.4,250.2,43.8,250.2,44.2,250.2z"/>
	<polygon class="st0" points="215.3,149 211.7,156.5 207.6,157.1 211.7,156.5 	"/>
	<path class="st0" d="M211.5,182.5c-0.4,0.2-0.9,0.4-1.3,0.4C210.6,182.9,211,182.7,211.5,182.5z"/>
	<path class="st0" d="M215.9,148.1c0.7-0.8,1.7-1.3,2.8-1.3C217.6,146.9,216.6,147.4,215.9,148.1z"/>
	<path class="st0" d="M206.2,180.5c-0.1-0.3-0.2-0.7-0.3-1C206,179.8,206,180.2,206.2,180.5z"/>
	<path class="st0" d="M200.5,160.4c-0.2,0.5-0.2,1.1-0.2,1.6C200.3,161.4,200.4,160.9,200.5,160.4z"/>
	<path class="st0" d="M229.9,47.6c0.4-0.3,0.8-0.7,1.1-1.2C230.7,46.9,230.3,47.3,229.9,47.6z"/>
	<path class="st0" d="M206.7,248.7c0.2,0.3,0.5,0.5,0.8,0.8c0.3,0.2,0.7,0.4,1.1,0.6c-0.4-0.1-0.7-0.3-1.1-0.6
		C207.2,249.3,206.9,249,206.7,248.7z"/>
	<path class="st0" d="M229.9,249.5c0.4-0.3,0.8-0.7,1.1-1.2C230.7,248.8,230.3,249.2,229.9,249.5z"/>
	<path class="st0" d="M218.7,245.9l7.2,3.9c0.3,0.1,0.6,0.3,0.9,0.3c-0.3-0.1-0.6-0.2-0.9-0.3L218.7,245.9z"/>
	<path class="st1" d="M538.7,283.4L538.7,283.4L538.7,283.4L538.7,283.4z"/>
	<path class="st1" d="M28.5,283.4L28.5,283.4L28.5,283.4L28.5,283.4z"/>
	<path class="st2" d="M537.8,261.8H300.9v21.3c0,1.1-0.1,2.2-0.3,3.3c-0.1,0.7-0.3,1.4-0.4,2.1c-0.4,1.4-0.9,2.7-1.5,4
		c-0.3,0.6-0.6,1.3-1,1.9c-0.5,0.9-1.2,1.8-1.8,2.6c-3.8,4.6-9.4,7.6-15.6,7.9c-0.4,0-0.7,0-1.1,0h258.6c0.6-7.1,0.9-14.3,0.9-21.5
		l0,0C538.7,276.1,538.4,268.9,537.8,261.8z"/>
	<path class="st2" d="M283.7,28.3h-0.1h-0.1H283.7L283.7,28.3z"/>
	<path class="st2" d="M300.9,86.4v34.1h179C466.4,104.3,451,89.8,434,77.3H300.9V86.4z"/>
	<path class="st2" d="M300.9,195.7v17h227.9c-4.3-15-10-29.4-16.8-43.2H301L300.9,195.7L300.9,195.7z"/>
	<path class="st2" d="M55.2,397.2h456.7c6.9-13.7,12.5-28.2,16.8-43.2H38.3C42.7,369.1,48.4,383.5,55.2,397.2z"/>
	<path class="st2" d="M133.2,489.4h300.9c17-12.5,32.5-27,45.9-43.2H87.3C100.7,462.5,116.1,477,133.2,489.4z"/>
	<path class="st3" d="M434,77.4c-37.8-27.7-83.5-45.2-133.1-48.5v48.5H434z"/>
	<path class="st3" d="M300.9,246.8v15h236.9c-1.4-16.9-4.5-33.3-9-49.1H300.9V246.8z"/>
	<path class="st3" d="M258.7,305L258.7,305H29.4c1.4,16.9,4.5,33.3,9,49.1h490.4c4.5-15.8,7.6-32.2,9-49.1H279.2H258.7z"/>
	<path class="st3" d="M87.3,446.3H480c12.5-15,23.2-31.5,32-49.1H55.3C64,414.8,74.8,431.3,87.3,446.3z"/>
	<path class="st3" d="M283.6,538.5c56.3,0,108.3-18.2,150.4-49.1H133.1C175.4,520.3,227.3,538.5,283.6,538.5z"/>
	<path class="st3" d="M300.9,137.6v32h211c-8.8-17.6-19.6-34.1-32-49.1h-179V137.6z"/>
	<path class="st4" d="M87.6,120.1c-0.8,1-1.6,2-2.4,2.9l1.1-0.2L87.6,120.1z"/>
	<path class="st4" d="M169.1,55.4c-0.2,0.1-0.4,0.2-0.5,0.3l0.4-0.1L169.1,55.4z"/>
	<path class="st4" d="M258.7,305h20.5c0.4,0,0.7,0,1.1,0c6.3-0.3,11.9-3.4,15.6-7.9c0.7-0.8,1.3-1.7,1.8-2.6c0.4-0.6,0.7-1.2,1-1.9
		c0.6-1.3,1.1-2.6,1.5-4c0.2-0.7,0.3-1.4,0.4-2.1c0.2-1.1,0.3-2.2,0.3-3.3v-21.3v-15v-34.1v-17v-26.1v-32v-17V86.4v-9V28.9
		c-5.7-0.4-11.4-0.6-17.2-0.6h-0.2c-8.5,0-16.8,0.4-25.1,1.2c-8.9,0.9-17.7,2.2-26.4,4l-2.1,2l1.4,8.2c0,0.2,0,0.4,0.1,0.5
		c0,0.4,0,0.7-0.1,1.1c-0.1,0.3-0.2,0.7-0.4,1c-0.3,0.5-0.6,0.9-1.1,1.2c-0.7,0.5-1.4,0.7-2.2,0.7c-0.3,0-0.6,0-0.9-0.1
		c-0.3-0.1-0.6-0.2-0.9-0.3l-7.2-3.9l-7.2,3.9c-0.4,0.2-0.9,0.4-1.3,0.4c-0.1,0-0.3,0-0.4,0c-0.4,0-0.8-0.1-1.2-0.2
		c-0.4-0.1-0.7-0.3-1.1-0.6c-0.3-0.2-0.5-0.5-0.8-0.8c-0.2-0.3-0.4-0.6-0.5-0.9s-0.2-0.7-0.3-1s0-0.7,0-1.1l0.6-3.7
		c-9,2.8-17.7,6.1-26.2,9.9l2.7,5.5l8.1,1.2c1.4,0.2,2.6,1.2,3.1,2.6c0.2,0.5,0.2,1.1,0.2,1.6c-0.1,0.5-0.2,1-0.5,1.5
		c-0.2,0.3-0.4,0.6-0.6,0.9l-5.8,5.8l1.4,8.2c0,0.2,0,0.4,0.1,0.5c0,0.5-0.1,1.1-0.3,1.6c-0.3,0.7-0.7,1.2-1.3,1.7
		c-0.7,0.5-1.4,0.7-2.2,0.7c-0.6,0-1.2-0.1-1.8-0.4l-7.2-3.9l-7.2,3.9c-0.3,0.1-0.6,0.3-0.9,0.3c-0.3,0.1-0.6,0.1-0.9,0.1
		c-0.4,0-0.8-0.1-1.2-0.2s-0.7-0.3-1.1-0.6c-0.6-0.4-1-1-1.3-1.7c-0.3-0.7-0.3-1.4-0.2-2.1l1.4-8.2l-5.8-5.8c-0.5-0.5-0.9-1.2-1.1-2
		c-24.2,13.7-45.9,31.3-64.3,51.8c1.3,0.1,2.5,0.9,3.1,2.1l3.6,7.5l4,0.6l4,0.6c0.7,0.1,1.4,0.4,1.9,0.9s0.9,1.1,1.2,1.8
		c0.3,1.1,0.2,2.2-0.3,3.1c-0.1,0.2-0.2,0.3-0.3,0.4c-0.1,0.1-0.2,0.3-0.4,0.4l-5.8,5.8l1.4,8.2c0.2,1.5-0.3,2.9-1.5,3.8
		c-0.7,0.5-1.4,0.7-2.2,0.7c-0.6,0-1.2-0.1-1.8-0.4l-7.2-3.9l-7.2,3.9c-0.6,0.3-1.2,0.4-1.8,0.4c-0.8,0-1.6-0.3-2.2-0.7
		c-0.4-0.3-0.8-0.7-1.1-1.2c-0.4-0.8-0.6-1.7-0.5-2.6l1.4-8.2l-4-4c-5.7,7.8-11,15.9-15.8,24.3l6.1,0.9c1.4,0.2,2.6,1.2,3.1,2.6
		c0.1,0.4,0.2,0.7,0.2,1.1c0,1.1-0.4,2.1-1.1,2.9l-5.8,5.8l1.4,8.2c0,0.2,0,0.4,0.1,0.5c0,0.7-0.2,1.4-0.5,2
		c-0.3,0.5-0.6,0.9-1.1,1.2c-0.7,0.5-1.4,0.7-2.2,0.7c-0.6,0-1.2-0.1-1.8-0.4l-7.2-3.9l-2.9,1.6c-11.2,25.3-18.4,52.8-20.9,81.7
		c-0.6,7.1-0.9,14.3-0.9,21.5v0.1c0,7.3,0.3,14.4,0.9,21.5h229.3V305z M70.3,231.7l-5.8,5.8l1.4,8.2c0,0.2,0,0.4,0.1,0.5
		c0,0.7-0.2,1.4-0.5,2.1c-0.3,0.5-0.6,0.9-1.1,1.2c-0.7,0.5-1.4,0.7-2.2,0.7c-0.6,0-1.2-0.1-1.8-0.4l-7.2-3.9l-7.2,3.9
		c-0.3,0.2-0.6,0.3-0.9,0.3c-0.3,0.1-0.6,0.1-0.9,0.1c-0.4,0-0.8-0.1-1.2-0.2s-0.7-0.3-1.1-0.6c-0.1-0.1-0.3-0.2-0.4-0.4
		c-0.3-0.3-0.5-0.5-0.6-0.8c-0.4-0.8-0.6-1.7-0.5-2.6l1.4-8.2l-5.8-5.8c-1-1-1.4-2.6-1-4s1.6-2.4,3.1-2.6l8.1-1.2l3.6-7.5
		c0.5-1,1.3-1.7,2.3-2c0.3-0.1,0.7-0.2,1-0.2c0.5,0,1.1,0.1,1.5,0.3c0.8,0.4,1.5,1,1.9,1.8l3.6,7.5l8.1,1.2c1.4,0.2,2.6,1.2,3.1,2.6
		c0.1,0.4,0.2,0.7,0.2,1.1C71.5,229.8,71.1,230.9,70.3,231.7z M110.4,265.3l-5.8,5.8l1.4,8.2c0.2,1.5-0.3,2.9-1.5,3.8
		c-0.7,0.5-1.4,0.7-2.2,0.7c-0.6,0-1.2-0.1-1.8-0.4l-7.2-3.9l-7.2,3.9c-0.6,0.3-1.2,0.4-1.8,0.4c-0.8,0-1.6-0.2-2.2-0.7
		c-1.2-0.9-1.8-2.3-1.5-3.8l1.4-8.2l-5.8-5.8c-0.9-0.9-1.3-2.2-1.1-3.5c0-0.2,0.1-0.3,0.1-0.5c0.4-1.4,1.6-2.4,3.1-2.6l8.1-1.2
		L90,250c0.6-1.3,2-2.2,3.4-2.2s2.8,0.8,3.4,2.2l3.6,7.5l8.1,1.2c1.4,0.2,2.6,1.2,3.1,2.6c0.1,0.2,0.1,0.3,0.1,0.5
		C111.8,263.1,111.4,264.4,110.4,265.3z M111.1,197.1c-0.1,0.2-0.2,0.3-0.3,0.5c-0.1,0.1-0.2,0.3-0.4,0.4l-5.8,5.8l1.4,8.2
		c0.2,1.5-0.3,2.9-1.5,3.8c-0.7,0.5-1.4,0.7-2.2,0.7c-0.6,0-1.2-0.1-1.8-0.4l-7.2-3.9l-7.2,3.9c-0.6,0.3-1.2,0.4-1.8,0.4
		c-0.8,0-1.6-0.2-2.2-0.7c-0.4-0.3-0.8-0.7-1.1-1.2c-0.4-0.8-0.6-1.7-0.5-2.6l1.4-8.2l-5.8-5.8c-1-1-1.4-2.6-1-4s1.6-2.4,3.1-2.6
		l8.1-1.2l3.6-7.5c0.6-1.3,2-2.2,3.4-2.2c0.2,0,0.4,0,0.5,0c0.9,0.1,1.7,0.6,2.3,1.2c0.2,0.3,0.4,0.6,0.6,0.9l3.6,7.5l4,0.6l4,0.6
		c0.7,0.1,1.4,0.4,1.9,0.9s0.9,1.1,1.2,1.8C111.7,195.1,111.6,196.2,111.1,197.1z M153.1,231.7l-5.8,5.8l1.4,8.2
		c0,0.2,0,0.4,0.1,0.5c0,0.4,0,0.7-0.1,1.1c-0.1,0.3-0.2,0.7-0.4,1c-0.3,0.5-0.6,0.9-1.1,1.2c-0.7,0.5-1.4,0.7-2.2,0.7
		c-0.4,0-0.9-0.1-1.3-0.2c-0.1-0.1-0.3-0.1-0.4-0.2l-7.2-3.9l-7.2,3.9c-0.3,0.2-0.6,0.3-0.9,0.3c-0.3,0.1-0.6,0.1-0.9,0.1l0,0l0,0
		c-0.4,0-0.8-0.1-1.2-0.2c-0.2-0.1-0.4-0.1-0.6-0.2c-0.2-0.1-0.4-0.2-0.5-0.3c-0.6-0.4-1-1-1.3-1.7s-0.3-1.4-0.2-2.1l1.4-8.2
		l-5.8-5.8c-0.4-0.4-0.7-0.8-0.9-1.3c-0.3-0.8-0.4-1.8-0.1-2.6c0.3-0.9,0.8-1.6,1.6-2.1c0.4-0.3,0.9-0.5,1.5-0.6l8.1-1.2l3.6-7.5
		c0.3-0.7,0.8-1.2,1.4-1.6c0.6-0.4,1.3-0.6,2-0.6l0,0l0,0c0.9,0,1.8,0.3,2.4,0.9c0.4,0.3,0.7,0.8,1,1.3l3.6,7.5l8.1,1.2
		c0.2,0,0.4,0.1,0.5,0.1c0.7,0.2,1.3,0.6,1.7,1.1c0.2,0.3,0.4,0.6,0.6,0.9c0.1,0.2,0.1,0.3,0.2,0.5
		C154.5,229.1,154.1,230.6,153.1,231.7z M153.1,164.4l-5.8,5.8l1.4,8.2c0,0.2,0,0.4,0.1,0.5c0,0.4,0,0.7-0.1,1.1
		c-0.1,0.3-0.2,0.7-0.4,1c-0.3,0.5-0.6,0.9-1.1,1.2c-0.7,0.5-1.4,0.7-2.2,0.7c-0.4,0-0.9-0.1-1.3-0.2c-0.1-0.1-0.3-0.1-0.4-0.2
		l-7.2-3.9l-7.2,3.9c-0.3,0.2-0.6,0.3-0.9,0.3c-0.3,0.1-0.6,0.1-0.9,0.1l0,0l0,0c-0.4,0-0.8-0.1-1.2-0.2c-0.2-0.1-0.4-0.1-0.6-0.2
		c-0.2-0.1-0.4-0.2-0.5-0.3c-0.6-0.4-1-1-1.3-1.7s-0.3-1.4-0.2-2.1l1.4-8.2l-5.8-5.8c-0.4-0.4-0.7-0.8-0.9-1.3
		c-0.3-0.8-0.4-1.8-0.1-2.6c0.3-0.9,0.8-1.6,1.6-2.1c0.4-0.3,0.9-0.5,1.5-0.6l8.1-1.2l3.6-7.5c0.3-0.7,0.8-1.2,1.4-1.6
		c0.6-0.4,1.3-0.6,2-0.6l0,0l0,0c0.9,0,1.8,0.3,2.4,0.9c0.4,0.3,0.7,0.8,1,1.3l3.6,7.5l8.1,1.2c0.2,0,0.4,0.1,0.5,0.1
		c0.7,0.2,1.3,0.6,1.7,1.1c0.2,0.3,0.4,0.6,0.6,0.9c0.1,0.2,0.1,0.3,0.2,0.5C154.5,161.8,154.1,163.3,153.1,164.4z M153.1,97
		l-5.8,5.8l1.4,8.2c0,0.2,0,0.4,0.1,0.5c0,0.4,0,0.7-0.1,1.1c-0.1,0.3-0.2,0.7-0.4,1c-0.3,0.5-0.6,0.9-1.1,1.2
		c-0.7,0.5-1.4,0.7-2.2,0.7c-0.4,0-0.9-0.1-1.3-0.2c-0.1-0.1-0.3-0.1-0.4-0.2l-7.2-3.9l-7.2,3.9c-0.3,0.2-0.6,0.3-0.9,0.3
		c-0.3,0.1-0.6,0.1-0.9,0.1l0,0l0,0c-0.4,0-0.8-0.1-1.2-0.2c-0.2-0.1-0.4-0.1-0.6-0.2c-0.2-0.1-0.4-0.2-0.5-0.3
		c-0.6-0.4-1-1-1.3-1.7s-0.3-1.4-0.2-2.1l1.4-8.2l-5.8-5.8c-0.4-0.4-0.7-0.8-0.9-1.3c-0.3-0.8-0.4-1.8-0.1-2.6
		c0.3-0.9,0.8-1.6,1.6-2.1c0.4-0.3,0.9-0.5,1.5-0.6l8.1-1.2l3.6-7.5c0.3-0.7,0.8-1.2,1.4-1.6c0.6-0.4,1.3-0.6,2-0.6l0,0l0,0
		c0.9,0,1.8,0.3,2.4,0.9c0.4,0.3,0.7,0.8,1,1.3l3.6,7.5l8.1,1.2c0.2,0,0.4,0.1,0.5,0.1c0.7,0.2,1.3,0.6,1.7,1.1
		c0.2,0.3,0.4,0.6,0.6,0.9c0.1,0.2,0.1,0.3,0.2,0.5C154.5,94.5,154.1,96,153.1,97z M193.2,265.3l-5.8,5.8l1.4,8.2
		c0.2,1.5-0.3,2.9-1.5,3.8c-0.7,0.5-1.4,0.7-2.2,0.7c-0.6,0-1.2-0.1-1.8-0.4l-7.2-3.9l-7.2,3.9c-0.6,0.3-1.2,0.4-1.8,0.4
		c-0.8,0-1.6-0.2-2.2-0.7c-1.2-0.9-1.8-2.3-1.5-3.8l1.4-8.2l-5.8-5.8c-0.9-0.9-1.3-2.2-1.1-3.5c0-0.2,0.1-0.3,0.1-0.5
		c0.4-1.4,1.6-2.4,3.1-2.6l8.1-1.2l3.6-7.5c0.6-1.3,2-2.2,3.4-2.2s2.8,0.8,3.4,2.2l3.6,7.5l8.1,1.2c1.4,0.2,2.6,1.2,3.1,2.6
		c0.1,0.2,0.1,0.3,0.1,0.5C194.5,263.1,194.1,264.4,193.2,265.3z M194.3,195.6c-0.1,0.5-0.2,1-0.5,1.5c-0.2,0.3-0.4,0.6-0.6,0.9
		l-5.8,5.8l1.4,8.2c0,0.2,0,0.4,0.1,0.5c0,0.5-0.1,1.1-0.3,1.6c-0.3,0.7-0.7,1.2-1.3,1.7c-0.7,0.5-1.4,0.7-2.2,0.7
		c-0.6,0-1.2-0.1-1.8-0.4l-7.2-3.9l-7.2,3.9c-0.3,0.2-0.6,0.3-0.9,0.3c-0.3,0.1-0.6,0.1-0.9,0.1c-0.4,0-0.8-0.1-1.2-0.2
		s-0.7-0.3-1.1-0.6c-0.6-0.4-1-1-1.3-1.7s-0.3-1.4-0.2-2.1l1.4-8.2l-5.8-5.8c-0.3-0.3-0.5-0.5-0.6-0.9c-0.2-0.3-0.3-0.6-0.4-1
		c-0.2-0.7-0.1-1.4,0.1-2.1c0.1-0.4,0.3-0.7,0.5-1s0.4-0.6,0.7-0.8c0.1-0.1,0.3-0.2,0.4-0.3c0.4-0.3,0.9-0.5,1.5-0.6l4-0.6l4-0.6
		l3.6-7.5c0.6-1.3,2-2.2,3.4-2.2s2.8,0.8,3.4,2.2l3.6,7.5l8.1,1.2c1.4,0.2,2.6,1.2,3.1,2.6C194.3,194.5,194.4,195.1,194.3,195.6z
		 M194.3,128.3c-0.1,0.5-0.2,1-0.5,1.5c-0.2,0.3-0.4,0.6-0.6,0.9l-5.8,5.8l1.4,8.2c0,0.2,0,0.4,0.1,0.5c0,0.5-0.1,1.1-0.3,1.6
		c-0.3,0.7-0.7,1.2-1.3,1.7c-0.7,0.5-1.4,0.7-2.2,0.7c-0.6,0-1.2-0.1-1.8-0.4l-7.2-3.9l-7.2,3.9c-0.3,0.1-0.6,0.3-0.9,0.3
		c-0.3,0.1-0.6,0.1-0.9,0.1c-0.4,0-0.8-0.1-1.2-0.2c-0.4-0.1-0.7-0.3-1.1-0.6c-0.6-0.4-1-1-1.3-1.7s-0.3-1.4-0.2-2.1l1.4-8.2
		l-5.8-5.8c-0.3-0.3-0.5-0.5-0.6-0.9c-0.2-0.3-0.3-0.6-0.4-1c-0.2-0.7-0.1-1.4,0.1-2.1c0.1-0.4,0.3-0.7,0.5-1s0.4-0.6,0.7-0.8
		c0.1-0.1,0.3-0.2,0.4-0.3c0.4-0.3,0.9-0.5,1.5-0.6l4-0.6l4-0.6l3.6-7.5c0.6-1.3,2-2.2,3.4-2.2s2.8,0.8,3.4,2.2l3.6,7.5l8.1,1.2
		c1.4,0.2,2.6,1.2,3.1,2.6C194.3,127.2,194.4,127.8,194.3,128.3z M240.7,59.4c0.4-1.4,1.6-2.4,3.1-2.6l8.1-1.2l3.6-7.5
		c0.6-1.2,1.7-2,3-2.1c0.1,0,0.2,0,0.4,0c1.4,0,2.8,0.8,3.4,2.2l3.6,7.5l8.1,1.2c1.4,0.2,2.6,1.2,3.1,2.6c0.4,1.4,0.1,3-1,4
		l-5.8,5.8l1.4,8.1v0.1c0.2,1.5-0.3,2.9-1.5,3.8c-0.7,0.5-1.4,0.7-2.2,0.7c-0.6,0-1.2-0.1-1.8-0.4l-7.2-3.9l-0.4,0.2l-6.9,3.7
		c-0.6,0.3-1.2,0.4-1.8,0.4c-0.8,0-1.6-0.3-2.2-0.7c-1.2-0.9-1.8-2.3-1.5-3.8l1.4-8.2l-5.8-5.8C240.6,62.4,240.2,60.8,240.7,59.4z
		 M240.7,126.7c0.4-1.4,1.6-2.4,3.1-2.6l8.1-1.2l3.6-7.5c0.6-1.2,1.7-2,3-2.1c0.1,0,0.2,0,0.4,0c1.4,0,2.8,0.8,3.4,2.2l2.5,5.1
		l1.1,2.4l8.1,1.2c1.4,0.2,2.6,1.2,3.1,2.6c0.4,1.4,0.1,2.9-1,4l-5.8,5.8l1.4,8.2c0.2,1.5-0.3,2.9-1.5,3.8c-0.7,0.5-1.4,0.7-2.2,0.7
		c-0.6,0-1.2-0.1-1.8-0.4L259,145l-0.4,0.2l-6.9,3.7c-0.6,0.3-1.2,0.4-1.8,0.4c-0.8,0-1.6-0.3-2.2-0.7c-1.2-0.9-1.8-2.3-1.5-3.8
		l1.4-8.2l-5.8-5.8C240.6,129.7,240.2,128.1,240.7,126.7z M235.8,231.7l-5.8,5.8l1.4,8.2c0,0.2,0,0.4,0.1,0.5c0,0.4,0,0.7-0.1,1.1
		c-0.1,0.3-0.2,0.7-0.4,1c-0.3,0.5-0.6,0.9-1.1,1.2c-0.7,0.5-1.4,0.7-2.2,0.7c-0.3,0-0.6,0-0.9-0.1c-0.3-0.1-0.6-0.2-0.9-0.3
		l-7.2-3.9l-7.2,3.9c-0.4,0.2-0.9,0.4-1.3,0.4c-0.1,0-0.3,0-0.4,0c-0.4,0-0.8-0.1-1.2-0.2s-0.7-0.3-1.1-0.6
		c-0.3-0.2-0.5-0.5-0.8-0.8c-0.2-0.3-0.4-0.6-0.5-0.9c-0.1-0.3-0.2-0.7-0.3-1c0-0.4,0-0.7,0-1.1l1.4-8.2l-5.8-5.8
		c-0.4-0.4-0.7-0.8-0.9-1.3c-0.1-0.3-0.2-0.7-0.2-1c-0.1-0.5,0-1.1,0.2-1.6c0.2-0.7,0.6-1.3,1.2-1.8c0.5-0.5,1.2-0.8,1.9-0.9l4-0.6
		l4-0.6l3.6-7.5c0.2-0.3,0.4-0.6,0.6-0.9c0.7-0.8,1.7-1.3,2.8-1.3c1.4,0,2.8,0.8,3.4,2.2l3.6,7.5l8.1,1.2c1.4,0.2,2.6,1.2,3.1,2.6
		C237.2,229.1,236.9,230.6,235.8,231.7z M235.8,164.4l-5.8,5.8l1.4,8.2c0,0.2,0,0.4,0.1,0.5c0,0.4,0,0.7-0.1,1.1
		c-0.1,0.3-0.2,0.7-0.4,1c-0.3,0.5-0.6,0.9-1.1,1.2c-0.7,0.5-1.4,0.7-2.2,0.7c-0.3,0-0.6,0-0.9-0.1c-0.3-0.1-0.6-0.2-0.9-0.3
		l-7.2-3.9l-7.2,3.9c-0.4,0.2-0.9,0.4-1.3,0.4c-0.1,0-0.3,0-0.4,0c-0.4,0-0.8-0.1-1.2-0.2s-0.7-0.3-1.1-0.6
		c-0.3-0.2-0.5-0.5-0.8-0.8c-0.2-0.3-0.4-0.6-0.5-0.9c-0.1-0.3-0.2-0.7-0.3-1s0-0.7,0-1.1l1.4-8.2l-5.8-5.8
		c-0.4-0.4-0.7-0.8-0.9-1.3c-0.1-0.3-0.2-0.7-0.2-1c-0.1-0.5,0-1.1,0.2-1.6c0.2-0.7,0.6-1.3,1.2-1.8c0.5-0.5,1.2-0.8,1.9-0.9l4-0.6
		l4-0.6l3.6-7.5c0.2-0.3,0.4-0.6,0.6-0.9c0.7-0.8,1.7-1.3,2.8-1.3c1.4,0,2.8,0.8,3.4,2.2l3.6,7.5l8.1,1.2c1.4,0.2,2.6,1.2,3.1,2.6
		C237.2,161.8,236.9,163.3,235.8,164.4z M235.8,97l-5.8,5.8l1.4,8.2c0,0.2,0,0.4,0.1,0.5c0,0.4,0,0.7-0.1,1.1
		c-0.1,0.3-0.2,0.7-0.4,1c-0.3,0.5-0.6,0.9-1.1,1.2c-0.7,0.5-1.4,0.7-2.2,0.7c-0.3,0-0.6,0-0.9-0.1c-0.3-0.1-0.6-0.2-0.9-0.3
		l-7.2-3.9l-7.2,3.9c-0.4,0.2-0.9,0.4-1.3,0.4c-0.1,0-0.3,0-0.4,0c-0.4,0-0.8-0.1-1.2-0.2s-0.7-0.3-1.1-0.6
		c-0.3-0.2-0.5-0.5-0.8-0.8c-0.2-0.3-0.4-0.6-0.5-0.9s-0.2-0.7-0.3-1c0-0.4,0-0.7,0-1.1l1.4-8.2l-5.8-5.8c-0.4-0.4-0.7-0.8-0.9-1.3
		c-0.1-0.3-0.2-0.7-0.2-1c-0.1-0.5,0-1.1,0.2-1.6c0.2-0.7,0.6-1.3,1.2-1.8c0.5-0.5,1.2-0.8,1.9-0.9l4-0.6l4-0.6l3.6-7.5
		c0.2-0.3,0.4-0.6,0.6-0.9c0.7-0.8,1.7-1.3,2.8-1.3c1.4,0,2.8,0.8,3.4,2.2l3.6,7.5l8.1,1.2c1.4,0.2,2.6,1.2,3.1,2.6
		C237.2,94.5,236.9,96,235.8,97z M240.7,194c0.4-1.4,1.6-2.4,3.1-2.6l8.1-1.2l3.6-7.5c0.6-1.2,1.7-2,3-2.1c0.1,0,0.2,0,0.4,0
		c1.4,0,2.8,0.8,3.4,2.2l3.6,7.5l8.1,1.2c1.4,0.2,2.6,1.2,3.1,2.6c0.4,1.4,0.1,3-1,4l-5.8,5.8l1.4,8.2c0,0.2,0,0.5,0,0.7
		c0,1.2-0.6,2.4-1.6,3.1c-0.7,0.5-1.4,0.7-2.2,0.7c-0.6,0-1.2-0.1-1.8-0.4l-6.3-3.4l-0.9-0.5l-0.4,0.2l-6.9,3.7
		c-0.6,0.3-1.2,0.4-1.8,0.4c-0.8,0-1.6-0.2-2.2-0.7c-1.2-0.9-1.8-2.3-1.5-3.8l1.4-8.2l-5.8-5.8C240.6,197,240.2,195.4,240.7,194z
		 M249.8,283.9c-0.8,0-1.6-0.2-2.2-0.7c-1.2-0.9-1.8-2.3-1.5-3.8l1.4-8.2l-5.8-5.8c-0.9-0.9-1.3-2.2-1.1-3.5l0,0
		c0-0.2,0.1-0.3,0.1-0.5c0.4-1.4,1.6-2.4,3.1-2.6l8.1-1.2l3.6-7.5c0.5-1,1.4-1.7,2.4-2c0.3-0.1,0.6-0.1,1-0.1c1.4,0,2.8,0.8,3.4,2.2
		l3.6,7.5l8.1,1.2c1.4,0.2,2.6,1.2,3.1,2.6c0.1,0.2,0.1,0.3,0.1,0.5c0.2,1.3-0.2,2.6-1.1,3.5l-5.8,5.8l1.4,8.2
		c0.2,1.5-0.3,2.9-1.5,3.8c-0.7,0.5-1.4,0.7-2.2,0.7c-0.6,0-1.2-0.1-1.8-0.4l-7.2-3.9l-7.2,3.9C251,283.7,250.4,283.9,249.8,283.9z"
		/>
	<path class="st5" d="M60.4,182.5c0.6,0.3,1.2,0.4,1.8,0.4c0.8,0,1.6-0.2,2.2-0.7c0.4-0.3,0.8-0.7,1.1-1.2c0.3-0.6,0.5-1.3,0.5-2
		c0-0.2,0-0.4-0.1-0.5l-1.4-8.2l5.8-5.8c0.8-0.8,1.2-1.8,1.1-2.9c0-0.4-0.1-0.7-0.2-1.1c-0.4-1.4-1.6-2.4-3.1-2.6L62,157
		c-4.3,7.6-8.3,15.3-11.8,23.4l2.9-1.6L60.4,182.5z"/>
	<path class="st5" d="M68.2,225l-8.1-1.2l-3.6-7.5c-0.4-0.8-1.1-1.5-1.9-1.8c-0.5-0.2-1-0.3-1.5-0.3c-0.4,0-0.7,0.1-1,0.2
		c-1,0.3-1.9,1-2.3,2l-3.6,7.5l-8.1,1.2c-1.4,0.2-2.6,1.2-3.1,2.6s-0.1,3,1,4l5.8,5.8l-1.4,8.2c-0.2,0.9,0,1.8,0.5,2.6
		c0.2,0.3,0.4,0.6,0.6,0.8c0.1,0.1,0.3,0.2,0.4,0.4c0.3,0.2,0.7,0.4,1.1,0.6s0.8,0.2,1.2,0.2c0.3,0,0.6,0,0.9-0.1
		c0.3-0.1,0.6-0.2,0.9-0.3l7.2-3.9l7.2,3.9c0.6,0.3,1.2,0.4,1.8,0.4c0.8,0,1.6-0.2,2.2-0.7c0.4-0.3,0.8-0.7,1.1-1.2
		c0.3-0.6,0.5-1.3,0.5-2.1c0-0.2,0-0.4-0.1-0.5l-1.4-8.2l5.8-5.8c0.8-0.8,1.2-1.8,1.1-2.9c0-0.4-0.1-0.7-0.2-1.1
		C70.8,226.3,69.7,225.2,68.2,225z"/>
	<path class="st5" d="M153.8,92.6c-0.2-0.3-0.4-0.6-0.6-0.9c-0.5-0.5-1.1-0.9-1.7-1.1c-0.2-0.1-0.3-0.1-0.5-0.1l-8.1-1.2l-3.6-7.5
		c-0.2-0.5-0.6-0.9-1-1.3c-0.7-0.6-1.5-0.9-2.4-0.9l0,0c-0.7,0-1.4,0.2-2,0.6s-1.1,0.9-1.4,1.6l-3.6,7.5l-8.1,1.2
		c-0.5,0.1-1,0.3-1.5,0.6c-0.7,0.5-1.3,1.2-1.6,2.1s-0.2,1.8,0.1,2.6c0.2,0.5,0.5,1,0.9,1.3l5.8,5.8l-1.4,8.2
		c-0.1,0.7,0,1.5,0.2,2.1c0.3,0.7,0.7,1.2,1.3,1.7c0.2,0.1,0.3,0.2,0.5,0.3c0.2,0.1,0.4,0.2,0.6,0.2c0.4,0.1,0.8,0.2,1.2,0.2l0,0
		c0.3,0,0.6,0,0.9-0.1c0.3-0.1,0.6-0.2,0.9-0.3l7.2-3.9l0,0l7.2,3.9c0.1,0.1,0.3,0.1,0.4,0.2c0.4,0.2,0.9,0.2,1.3,0.2
		c0.8,0,1.6-0.2,2.2-0.7c0.4-0.3,0.8-0.7,1.1-1.2c0.2-0.3,0.3-0.6,0.4-1c0.1-0.3,0.1-0.7,0.1-1.1c0-0.2,0-0.4-0.1-0.5l-1.4-8.2
		l5.8-5.8c1-1,1.4-2.6,1-4C154,92.9,153.9,92.7,153.8,92.6z"/>
	<path class="st5" d="M153.8,159.9c-0.2-0.3-0.4-0.6-0.6-0.9c-0.5-0.5-1.1-0.9-1.7-1.1c-0.2-0.1-0.3-0.1-0.5-0.1l-8.1-1.2l-3.6-7.5
		c-0.2-0.5-0.6-0.9-1-1.3c-0.7-0.6-1.5-0.9-2.4-0.9l0,0c-0.7,0-1.4,0.2-2,0.6c-0.6,0.4-1.1,0.9-1.4,1.6l-3.6,7.5l-8.1,1.2
		c-0.5,0.1-1,0.3-1.5,0.6c-0.7,0.5-1.3,1.2-1.6,2.1c-0.3,0.9-0.2,1.8,0.1,2.6c0.2,0.5,0.5,1,0.9,1.3l5.8,5.8l-1.4,8.2
		c-0.1,0.7,0,1.5,0.2,2.1c0.3,0.7,0.7,1.2,1.3,1.7c0.2,0.1,0.3,0.2,0.5,0.3s0.4,0.2,0.6,0.2c0.4,0.1,0.8,0.2,1.2,0.2l0,0
		c0.3,0,0.6,0,0.9-0.1c0.3-0.1,0.6-0.2,0.9-0.3l7.2-3.9l0,0l7.2,3.9c0.1,0.1,0.3,0.1,0.4,0.2c0.4,0.2,0.9,0.2,1.3,0.2
		c0.8,0,1.6-0.2,2.2-0.7c0.4-0.3,0.8-0.7,1.1-1.2c0.2-0.3,0.3-0.6,0.4-1c0.1-0.3,0.1-0.7,0.1-1.1c0-0.2,0-0.4-0.1-0.5l-1.4-8.2
		l5.8-5.8c1-1,1.4-2.6,1-4C154,160.2,153.9,160,153.8,159.9z"/>
	<path class="st5" d="M153.8,227.2c-0.2-0.3-0.4-0.6-0.6-0.9c-0.5-0.5-1.1-0.9-1.7-1.1c-0.2-0.1-0.3-0.1-0.5-0.1l-8.1-1.2l-3.6-7.5
		c-0.2-0.5-0.6-0.9-1-1.3c-0.7-0.6-1.5-0.9-2.4-0.9l0,0c-0.7,0-1.4,0.2-2,0.6c-0.6,0.4-1.1,0.9-1.4,1.6l-3.6,7.5l-8.1,1.2
		c-0.5,0.1-1,0.3-1.5,0.6c-0.7,0.5-1.3,1.2-1.6,2.1c-0.3,0.9-0.2,1.8,0.1,2.6c0.2,0.5,0.5,1,0.9,1.3l5.8,5.8l-1.4,8.2
		c-0.1,0.7,0,1.5,0.2,2.1c0.3,0.7,0.7,1.2,1.3,1.7c0.2,0.1,0.3,0.2,0.5,0.3s0.4,0.2,0.6,0.2c0.4,0.1,0.8,0.2,1.2,0.2l0,0
		c0.3,0,0.6,0,0.9-0.1c0.3-0.1,0.6-0.2,0.9-0.3l7.2-3.9l0,0l7.2,3.9c0.1,0.1,0.3,0.1,0.4,0.2c0.4,0.2,0.9,0.2,1.3,0.2
		c0.8,0,1.6-0.2,2.2-0.7c0.4-0.3,0.8-0.7,1.1-1.2c0.2-0.3,0.3-0.6,0.4-1c0.1-0.3,0.1-0.7,0.1-1.1c0-0.2,0-0.4-0.1-0.5l-1.4-8.2
		l5.8-5.8c1-1,1.4-2.6,1-4C154,227.5,153.9,227.3,153.8,227.2z"/>
	<path class="st5" d="M80.6,144.8c-0.2,0.9,0,1.8,0.5,2.6c0.3,0.5,0.6,0.9,1.1,1.2c0.7,0.5,1.4,0.7,2.2,0.7c0.6,0,1.2-0.1,1.8-0.4
		l7.2-3.9l7.2,3.9c0.6,0.3,1.2,0.4,1.8,0.4c0.8,0,1.6-0.3,2.2-0.7c1.2-0.9,1.8-2.3,1.5-3.8l-1.4-8.2l5.8-5.8
		c0.1-0.1,0.2-0.3,0.4-0.4c0.2-0.1,0.2-0.3,0.3-0.4c0.5-0.9,0.6-2.1,0.3-3.1c-0.2-0.7-0.6-1.3-1.2-1.8s-1.2-0.8-1.9-0.9l-4-0.6
		l-4-0.6l-3.7-7.6c-0.6-1.2-1.8-2-3.1-2.1c-2,2.2-4,4.5-5.9,6.8l-1.3,2.8l-1.1,0.2c-2.5,3.1-4.9,6.2-7.3,9.5l4,4L80.6,144.8z"/>
	<path class="st5" d="M111.4,194c-0.2-0.7-0.6-1.3-1.2-1.8c-0.5-0.5-1.2-0.8-1.9-0.9l-4-0.6l-4-0.6l-3.6-7.5
		c-0.2-0.3-0.4-0.6-0.6-0.9c-0.6-0.7-1.4-1.1-2.3-1.2c-0.2,0-0.4,0-0.5,0c-1.4,0-2.8,0.8-3.4,2.2l-3.6,7.5l-8.1,1.2
		c-1.4,0.2-2.6,1.2-3.1,2.6c-0.4,1.4-0.1,3,1,4l5.8,5.8l-1.4,8.2c-0.2,0.9,0,1.8,0.5,2.6c0.3,0.5,0.6,0.9,1.1,1.2
		c0.7,0.5,1.4,0.7,2.2,0.7c0.6,0,1.2-0.1,1.8-0.4l7.2-3.9l7.2,3.9c0.6,0.3,1.2,0.4,1.8,0.4c0.8,0,1.6-0.2,2.2-0.7
		c1.2-0.9,1.8-2.3,1.5-3.8l-1.4-8.2l5.8-5.8c0.1-0.1,0.2-0.3,0.4-0.4c0.1-0.1,0.2-0.3,0.3-0.5C111.6,196.2,111.7,195.1,111.4,194z"
		/>
	<path class="st5" d="M111.4,261.3c-0.4-1.4-1.6-2.4-3.1-2.6l-8.1-1.2l-3.6-7.5c-0.6-1.3-2-2.2-3.4-2.2s-2.8,0.8-3.4,2.2l-3.6,7.5
		l-8.1,1.2c-1.4,0.2-2.6,1.2-3.1,2.6c-0.1,0.2-0.1,0.3-0.1,0.5c-0.2,1.3,0.2,2.6,1.1,3.5l5.8,5.8l-1.4,8.2c-0.2,1.5,0.3,2.9,1.5,3.8
		c0.7,0.5,1.4,0.7,2.2,0.7c0.6,0,1.2-0.1,1.8-0.4l7.2-3.9l7.2,3.9c0.6,0.3,1.2,0.4,1.8,0.4c0.8,0,1.6-0.2,2.2-0.7
		c1.2-0.9,1.8-2.3,1.5-3.8l-1.4-8.2l5.8-5.8c0.9-0.9,1.3-2.2,1.1-3.5C111.5,261.7,111.5,261.5,111.4,261.3z"/>
	<path class="st5" d="M205.9,44.9c0,0.4,0.1,0.7,0.3,1c0.1,0.3,0.3,0.6,0.5,0.9s0.5,0.5,0.8,0.8c0.3,0.2,0.7,0.4,1.1,0.6
		c0.4,0.1,0.8,0.2,1.2,0.2c0.1,0,0.3,0,0.4,0c0.4-0.1,0.9-0.2,1.3-0.4l7.2-3.9l7.2,3.9c0.3,0.2,0.6,0.3,0.9,0.3
		c0.3,0.1,0.6,0.1,0.9,0.1c0.8,0,1.6-0.2,2.2-0.7c0.4-0.3,0.8-0.7,1.1-1.2c0.2-0.3,0.3-0.6,0.4-1c0.1-0.3,0.1-0.7,0.1-1.1
		c0-0.2,0-0.4-0.1-0.5l-1.4-8.2l2.1-2c-8.7,1.8-17.2,4-25.5,6.6L206,44C205.9,44.2,205.9,44.5,205.9,44.9z"/>
	<path class="st5" d="M233.7,90.4l-8.1-1.2l-3.6-7.5c-0.6-1.3-2-2.2-3.4-2.2c-1.1,0-2.1,0.5-2.8,1.3c-0.2,0.3-0.4,0.6-0.6,0.9
		l-3.6,7.5l-4,0.6l-4,0.6c-0.7,0.1-1.4,0.4-1.9,0.9s-0.9,1.1-1.2,1.8c-0.2,0.5-0.2,1.1-0.2,1.6c0,0.4,0.1,0.7,0.2,1
		c0.2,0.5,0.5,1,0.9,1.3l5.8,5.8l-1.4,8.2c-0.1,0.4-0.1,0.7,0,1.1c0,0.4,0.1,0.7,0.3,1c0.1,0.3,0.3,0.6,0.5,0.9s0.5,0.5,0.8,0.8
		c0.3,0.2,0.7,0.4,1.1,0.6s0.8,0.2,1.2,0.2c0.1,0,0.3,0,0.4,0c0.4-0.1,0.9-0.2,1.3-0.4l7.2-3.9l7.2,3.9c0.3,0.2,0.6,0.3,0.9,0.3
		c0.3,0.1,0.6,0.1,0.9,0.1c0.8,0,1.6-0.2,2.2-0.7c0.4-0.3,0.8-0.7,1.1-1.2c0.2-0.3,0.3-0.6,0.4-1c0.1-0.3,0.1-0.7,0.1-1.1
		c0-0.2,0-0.4-0.1-0.5l-1.4-8.2l5.8-5.8c1-1,1.4-2.6,1-4C236.3,91.7,235.2,90.6,233.7,90.4z"/>
	<path class="st5" d="M233.7,157.7l-8.1-1.2L222,149c-0.6-1.3-2-2.2-3.4-2.2c-1.1,0-2.1,0.5-2.8,1.3c-0.2,0.3-0.4,0.6-0.6,0.9
		l-3.6,7.5l-4,0.6l-4,0.6c-0.7,0.1-1.4,0.4-1.9,0.9s-0.9,1.1-1.2,1.8c-0.2,0.5-0.2,1.1-0.2,1.6c0,0.4,0.1,0.7,0.2,1
		c0.2,0.5,0.5,1,0.9,1.3l5.8,5.8l-1.4,8.2c-0.1,0.4-0.1,0.7,0,1.1s0.1,0.7,0.3,1c0.1,0.3,0.3,0.6,0.5,0.9c0.2,0.3,0.5,0.5,0.8,0.8
		c0.3,0.2,0.7,0.4,1.1,0.6s0.8,0.2,1.2,0.2c0.1,0,0.3,0,0.4,0c0.4-0.1,0.9-0.2,1.3-0.4l7.2-3.9l7.2,3.9c0.3,0.1,0.6,0.3,0.9,0.3
		c0.3,0.1,0.6,0.1,0.9,0.1c0.8,0,1.6-0.2,2.2-0.7c0.4-0.3,0.8-0.7,1.1-1.2c0.2-0.3,0.3-0.6,0.4-1c0.1-0.3,0.1-0.7,0.1-1.1
		c0-0.2,0-0.4-0.1-0.5l-1.4-8.2l5.8-5.8c1-1,1.4-2.6,1-4C236.3,159,235.2,157.9,233.7,157.7z"/>
	<path class="st5" d="M233.7,225l-8.1-1.2l-3.6-7.5c-0.6-1.3-2-2.2-3.4-2.2c-1.1,0-2.1,0.5-2.8,1.3c-0.2,0.3-0.4,0.6-0.6,0.9
		l-3.6,7.5l-4,0.6l-4,0.6c-0.7,0.1-1.4,0.4-1.9,0.9s-0.9,1.1-1.2,1.8c-0.2,0.5-0.2,1.1-0.2,1.6c0,0.4,0.1,0.7,0.2,1
		c0.2,0.5,0.5,1,0.9,1.3l5.8,5.8l-1.4,8.2c-0.1,0.4-0.1,0.7,0,1.1c0,0.4,0.1,0.7,0.3,1c0.1,0.3,0.3,0.6,0.5,0.9
		c0.2,0.3,0.5,0.5,0.8,0.8c0.3,0.2,0.7,0.4,1.1,0.6s0.8,0.2,1.2,0.2c0.1,0,0.3,0,0.4,0c0.4-0.1,0.9-0.2,1.3-0.4l7.2-3.9l7.2,3.9
		c0.3,0.1,0.6,0.3,0.9,0.3c0.3,0.1,0.6,0.1,0.9,0.1c0.8,0,1.6-0.2,2.2-0.7c0.4-0.3,0.8-0.7,1.1-1.2c0.2-0.3,0.3-0.6,0.4-1
		c0.1-0.3,0.1-0.7,0.1-1.1c0-0.2,0-0.4-0.1-0.5l-1.4-8.2l5.8-5.8c1-1,1.4-2.6,1-4C236.3,226.3,235.2,225.2,233.7,225z"/>
	<path class="st5" d="M164.7,69.2l-1.4,8.2c-0.1,0.7,0,1.5,0.2,2.1c0.3,0.7,0.7,1.2,1.3,1.7c0.3,0.2,0.7,0.4,1.1,0.6
		c0.4,0.1,0.8,0.2,1.2,0.2c0.3,0,0.6,0,0.9-0.1c0.3-0.1,0.6-0.2,0.9-0.3l7.2-3.9l0,0l7.2,3.9c0.6,0.3,1.2,0.4,1.8,0.4
		c0.8,0,1.6-0.3,2.2-0.7c0.6-0.4,1-1,1.3-1.7c0.2-0.5,0.3-1,0.3-1.6c0-0.2,0-0.4-0.1-0.5l-1.4-8.2l5.8-5.8c0.3-0.3,0.5-0.5,0.6-0.9
		c0.3-0.5,0.4-1,0.5-1.5s0-1.1-0.2-1.6c-0.4-1.4-1.6-2.4-3.1-2.6l-8.1-1.2l-2.7-5.5c-3.8,1.7-7.6,3.5-11.2,5.3l-0.1,0.2l-0.4,0.1
		c-3.6,1.8-7.2,3.8-10.8,5.8c0.2,0.7,0.5,1.4,1.1,2L164.7,69.2z"/>
	<path class="st5" d="M191.1,124.1l-8.1-1.2l-3.6-7.5c-0.6-1.3-2-2.2-3.4-2.2s-2.8,0.8-3.4,2.2l-3.6,7.5l-4,0.6l-4,0.6
		c-0.5,0.1-1,0.3-1.5,0.6c-0.1,0.1-0.3,0.2-0.4,0.3c-0.3,0.2-0.5,0.5-0.7,0.8s-0.4,0.6-0.5,1c-0.2,0.7-0.2,1.4-0.1,2.1
		c0.1,0.3,0.2,0.7,0.4,1s0.4,0.6,0.6,0.9l5.8,5.8l-1.4,8.2c-0.1,0.7,0,1.5,0.2,2.1c0.2,0.6,0.7,1.2,1.3,1.7c0.3,0.2,0.7,0.4,1.1,0.6
		c0.4,0.1,0.8,0.2,1.2,0.2c0.3,0,0.6,0,0.9-0.1c0.3-0.1,0.6-0.2,0.9-0.3l7.2-3.9l0,0l7.2,3.9c0.6,0.3,1.2,0.4,1.8,0.4
		c0.8,0,1.6-0.3,2.2-0.7c0.6-0.4,1-1,1.3-1.7c0.2-0.5,0.3-1,0.3-1.6c0-0.2,0-0.4-0.1-0.5l-1.4-8.2l5.8-5.8c0.3-0.3,0.5-0.5,0.6-0.9
		c0.3-0.5,0.4-1,0.5-1.5s0-1.1-0.2-1.6C193.7,125.3,192.5,124.3,191.1,124.1z"/>
	<path class="st5" d="M191.1,191.4l-8.1-1.2l-3.6-7.5c-0.6-1.3-2-2.2-3.4-2.2s-2.8,0.8-3.4,2.2l-3.6,7.5l-4,0.6l-4,0.6
		c-0.5,0.1-1,0.3-1.5,0.6c-0.1,0.1-0.3,0.2-0.4,0.3c-0.3,0.2-0.5,0.5-0.7,0.8s-0.4,0.6-0.5,1c-0.2,0.7-0.2,1.4-0.1,2.1
		c0.1,0.3,0.2,0.7,0.4,1s0.4,0.6,0.6,0.9l5.8,5.8l-1.4,8.2c-0.1,0.7,0,1.5,0.2,2.1c0.3,0.7,0.7,1.2,1.3,1.7c0.3,0.2,0.7,0.4,1.1,0.6
		s0.8,0.2,1.2,0.2c0.3,0,0.6,0,0.9-0.1c0.3-0.1,0.6-0.2,0.9-0.3l7.2-3.9l0,0l7.2,3.9c0.6,0.3,1.2,0.4,1.8,0.4c0.8,0,1.6-0.2,2.2-0.7
		c0.6-0.4,1-1,1.3-1.7c0.2-0.5,0.3-1,0.3-1.6c0-0.2,0-0.4-0.1-0.5l-1.4-8.2l5.8-5.8c0.3-0.3,0.5-0.5,0.6-0.9c0.3-0.5,0.4-1,0.5-1.5
		s0-1.1-0.2-1.6C193.7,192.6,192.5,191.6,191.1,191.4z"/>
	<path class="st5" d="M194.2,261.3c-0.4-1.4-1.6-2.4-3.1-2.6l-8.1-1.2l-3.6-7.5c-0.6-1.3-2-2.2-3.4-2.2s-2.8,0.8-3.4,2.2l-3.6,7.5
		l-8.1,1.2c-1.4,0.2-2.6,1.2-3.1,2.6c-0.1,0.2-0.1,0.3-0.1,0.5c-0.2,1.3,0.2,2.6,1.1,3.5l5.8,5.8l-1.4,8.2c-0.2,1.5,0.3,2.9,1.5,3.8
		c0.7,0.5,1.4,0.7,2.2,0.7c0.6,0,1.2-0.1,1.8-0.4l7.2-3.9l7.2,3.9c0.6,0.3,1.2,0.4,1.8,0.4c0.8,0,1.6-0.2,2.2-0.7
		c1.2-0.9,1.8-2.3,1.5-3.8l-1.4-8.2l5.8-5.8c0.9-0.9,1.3-2.2,1.1-3.5C194.2,261.7,194.2,261.5,194.2,261.3z"/>
	<path class="st5" d="M247.5,69.2l-1.4,8.2c-0.2,1.5,0.3,2.9,1.5,3.8c0.7,0.5,1.4,0.7,2.2,0.7c0.6,0,1.2-0.1,1.8-0.4l6.9-3.7
		l0.4-0.2l7.2,3.9c0.6,0.3,1.2,0.4,1.8,0.4c0.8,0,1.6-0.3,2.2-0.7c1.2-0.9,1.8-2.3,1.5-3.8v-0.1l-1.4-8.1l5.8-5.8c1-1,1.4-2.6,1-4
		s-1.6-2.4-3.1-2.6l-8.1-1.2l-3.6-7.5c-0.6-1.3-2-2.2-3.4-2.2c-0.1,0-0.2,0-0.4,0c-1.3,0.1-2.5,0.9-3,2.1l-3.6,7.5l-8.1,1.2
		c-1.4,0.2-2.6,1.2-3.1,2.6c-0.4,1.4-0.1,3,1,4L247.5,69.2z"/>
	<path class="st5" d="M247.5,136.5l-1.4,8.2c-0.2,1.5,0.3,2.9,1.5,3.8c0.7,0.5,1.4,0.7,2.2,0.7c0.6,0,1.2-0.1,1.8-0.4l6.9-3.7
		l0.4-0.2l7.2,3.9c0.6,0.3,1.2,0.4,1.8,0.4c0.8,0,1.6-0.3,2.2-0.7c1.2-0.9,1.8-2.3,1.5-3.8l-1.4-8.2l5.8-5.8c1-1,1.4-2.6,1-4
		s-1.6-2.4-3.1-2.6l-8.1-1.2l-1.1-2.4l-2.5-5.1c-0.6-1.3-2-2.2-3.4-2.2c-0.1,0-0.2,0-0.4,0c-1.3,0.1-2.5,0.9-3,2.1l-3.6,7.5
		l-8.1,1.2c-1.4,0.2-2.6,1.2-3.1,2.6c-0.4,1.4-0.1,2.9,1,4L247.5,136.5z"/>
	<path class="st5" d="M247.5,203.8l-1.4,8.2c-0.2,1.5,0.3,2.9,1.5,3.8c0.7,0.5,1.4,0.7,2.2,0.7c0.6,0,1.2-0.1,1.8-0.4l6.9-3.7
		l0.4-0.2l0.9,0.5l6.3,3.4c0.6,0.3,1.2,0.4,1.8,0.4c0.8,0,1.6-0.2,2.2-0.7c1-0.7,1.5-1.9,1.6-3.1c0-0.2,0-0.5,0-0.7l-1.4-8.2
		l5.8-5.8c1-1,1.4-2.6,1-4s-1.6-2.4-3.1-2.6l-8.1-1.2l-3.6-7.5c-0.6-1.3-2-2.2-3.4-2.2c-0.1,0-0.2,0-0.4,0c-1.3,0.1-2.5,0.9-3,2.1
		l-3.6,7.5l-8.1,1.2c-1.4,0.2-2.6,1.2-3.1,2.6c-0.4,1.4-0.1,3,1,4L247.5,203.8z"/>
	<path class="st5" d="M266,283.4c0.6,0.3,1.2,0.4,1.8,0.4c0.8,0,1.6-0.2,2.2-0.7c1.2-0.9,1.8-2.3,1.5-3.8l-1.4-8.2l5.8-5.8
		c0.9-0.9,1.3-2.2,1.1-3.5c0-0.2-0.1-0.3-0.1-0.5c-0.4-1.4-1.6-2.4-3.1-2.6l-8.1-1.2l-3.6-7.5c-0.6-1.3-2-2.2-3.4-2.2
		c-0.3,0-0.7,0-1,0.1c-1,0.3-1.9,1-2.4,2l-3.6,7.5l-8.1,1.2c-1.4,0.2-2.6,1.2-3.1,2.6c0,0.2-0.1,0.3-0.1,0.5l0,0
		c-0.2,1.3,0.2,2.6,1.1,3.5l5.8,5.8l-1.4,8.2c-0.2,1.5,0.3,2.9,1.5,3.8c0.7,0.5,1.4,0.7,2.2,0.7c0.6,0,1.2-0.1,1.8-0.4l7.2-3.9
		L266,283.4z"/>
</g>
</svg>
