<svg xmlns="http://www.w3.org/2000/svg" width="143.458" height="43.297" viewBox="0 0 143.458 43.297">
  <defs>
    <style>
      .cls-1 {
        fill: #fdfdfd;
      }
    </style>
  </defs>
  <g id="Group_4" data-name="Group 4" transform="translate(-47 -29)">
    <g id="Group_3" data-name="Group 3" transform="translate(47 29)">
      <g id="Group_1" data-name="Group 1" transform="translate(0 0)">
        <path id="Path_198" data-name="Path 198" class="cls-1" d="M215.11,439.539c-.182-1.728-1.67-7.285-5.973-10.045a9.808,9.808,0,0,0-3.275-1.341c0-1.79.01-2.965.01-3l-4.485-.024c0,.035-.007,1.218-.01,3.022a15,15,0,0,0-2,.527,9.879,9.879,0,0,0-6.21,5.453c-2.531,5.753.7,13.188.839,13.5l.075.154a20.436,20.436,0,0,1,1.063,3.5,11.013,11.013,0,0,1-.249,6.329,5.5,5.5,0,0,1-3.538,3.009c-.19.064-.376.12-.56.172,0-3.139-.021-6.694-.069-9.522-.084-4.94-2.112-7.044-3.8-7.94a6.548,6.548,0,0,0-6.62.493c-3.847,2.51-3.38,8.926-3.248,10.186.182,1.729,1.67,7.285,5.974,10.046a9.818,9.818,0,0,0,3.275,1.34c0,1.791-.01,2.966-.01,3l4.485.024c0-.035.007-1.218.01-3.021a15.065,15.065,0,0,0,2-.528,9.879,9.879,0,0,0,6.21-5.453c2.531-5.753-.7-13.189-.839-13.5l-.075-.154a20.416,20.416,0,0,1-1.063-3.5,11.01,11.01,0,0,1,.249-6.329,5.5,5.5,0,0,1,3.538-3.009c.19-.064.376-.12.56-.172,0,3.139.021,6.694.069,9.522.084,4.94,2.113,7.044,3.8,7.94a6.548,6.548,0,0,0,6.62-.493C215.71,447.216,215.243,440.8,215.11,439.539Zm-33.585,14.007c-.318-3.018.38-5.4,1.238-5.96a2.135,2.135,0,0,1,2.067-.287c.852.453,1.383,1.968,1.418,4.054.047,2.782.064,6.279.068,9.38a5.423,5.423,0,0,1-.856-.447C182.82,458.593,181.652,454.754,181.525,453.546Zm27.887-7.578a2.134,2.134,0,0,1-2.066.288c-.853-.453-1.383-1.968-1.418-4.054-.047-2.782-.064-6.279-.068-9.38a5.448,5.448,0,0,1,.856.446c2.639,1.693,3.808,5.533,3.935,6.74C210.967,443.027,210.27,445.409,209.412,445.969Z" transform="translate(-176.974 -425.129)"/>
        <circle id="Ellipse_6" data-name="Ellipse 6" class="cls-1" cx="2.467" cy="2.467" r="2.467" transform="translate(8.439 11.853)"/>
        <circle id="Ellipse_7" data-name="Ellipse 7" class="cls-1" cx="2.467" cy="2.467" r="2.467" transform="translate(26.324 28.392)"/>
      </g>
      <g id="Group_2" data-name="Group 2" transform="translate(42.22 4.704)">
        <path id="Path_199" data-name="Path 199" class="cls-1" d="M322.2,477.855a5.644,5.644,0,0,1-2.191,4.8q-2.191,1.65-6.555,1.65a20.6,20.6,0,0,1-3.814-.3,14.4,14.4,0,0,1-2.952-.889V478.5a19.521,19.521,0,0,0,3.511,1.228,14.211,14.211,0,0,0,3.438.5q3.043,0,3.043-1.76a1.469,1.469,0,0,0-.4-1.073,5.854,5.854,0,0,0-1.393-.935q-.99-.523-2.64-1.219a16.588,16.588,0,0,1-3.475-1.834,5.156,5.156,0,0,1-1.613-1.934,6.384,6.384,0,0,1-.5-2.686,4.87,4.87,0,0,1,2.118-4.226,10.316,10.316,0,0,1,6-1.494,17.048,17.048,0,0,1,7.205,1.614l-1.687,4.034q-1.54-.66-2.878-1.082a9.045,9.045,0,0,0-2.732-.422q-2.475,0-2.475,1.338a1.573,1.573,0,0,0,.8,1.3,21.66,21.66,0,0,0,3.493,1.632,16.24,16.24,0,0,1,3.52,1.815,5.371,5.371,0,0,1,1.65,1.943A5.971,5.971,0,0,1,322.2,477.855Z" transform="translate(-306.653 -455.414)"/>
        <path id="Path_200" data-name="Path 200" class="cls-1" d="M362.12,442.308q0-2.732,3.043-2.732t3.043,2.732a2.664,2.664,0,0,1-.761,2.026,3.2,3.2,0,0,1-2.283.724Q362.12,445.058,362.12,442.308Zm5.83,25.8h-5.592v-20.5h5.592Z" transform="translate(-344.061 -439.576)"/>
        <path id="Path_201" data-name="Path 201" class="cls-1" d="M411.442,483.942H405.85V471.97a6.03,6.03,0,0,0-.743-3.328,2.612,2.612,0,0,0-2.338-1.109,3.386,3.386,0,0,0-3.117,1.577,10.345,10.345,0,0,0-.972,5.189v9.644h-5.592v-20.5h4.272l.752,2.622h.312a5.68,5.68,0,0,1,2.383-2.209,7.736,7.736,0,0,1,3.576-.8q4.6,0,6.233,3.007h.5a5.534,5.534,0,0,1,2.429-2.218,8.1,8.1,0,0,1,3.621-.789,7.145,7.145,0,0,1,5.271,1.788q1.788,1.787,1.788,5.729v13.366h-5.611V471.97a6.033,6.033,0,0,0-.743-3.328,2.612,2.612,0,0,0-2.338-1.109A3.489,3.489,0,0,0,412.459,469a8.327,8.327,0,0,0-1.017,4.657Z" transform="translate(-364.948 -455.414)"/>
        <path id="Path_202" data-name="Path 202" class="cls-1" d="M512.636,484.309a6.8,6.8,0,0,1-5.665-2.622h-.293q.293,2.567.293,2.971v8.305h-5.592V463.444h4.547l.788,2.658h.257a6.469,6.469,0,0,1,5.812-3.043,6.652,6.652,0,0,1,5.684,2.805q2.054,2.805,2.053,7.792a15.387,15.387,0,0,1-.962,5.7,8,8,0,0,1-2.741,3.685A7.024,7.024,0,0,1,512.636,484.309Zm-1.65-16.776a3.53,3.53,0,0,0-3.025,1.274,7.312,7.312,0,0,0-.99,4.208v.605a8.633,8.633,0,0,0,.981,4.73,3.5,3.5,0,0,0,3.108,1.43q3.758,0,3.758-6.2a8.853,8.853,0,0,0-.926-4.538A3.161,3.161,0,0,0,510.986,467.533Z" transform="translate(-437.981 -455.414)"/>
        <path id="Path_203" data-name="Path 203" class="cls-1" d="M575,468.1H569.4V439.576H575Z" transform="translate(-483.859 -439.576)"/>
        <path id="Path_204" data-name="Path 204" class="cls-1" d="M598.909,442.308q0-2.732,3.043-2.732T605,442.308a2.665,2.665,0,0,1-.761,2.026,3.2,3.2,0,0,1-2.283.724Q598.909,445.058,598.909,442.308Zm5.83,25.8h-5.592v-20.5h5.592Z" transform="translate(-503.758 -439.576)"/>
      </g>
    </g>
  </g>
</svg>
